<svg preserveAspectRatio="none" overflow="visible" style="display: block;" width="20" height="20" viewBox="0 0 20 20" fill="none" xmlns="http://www.w3.org/2000/svg">
<g id="text-scan-ai 1" clip-path="url(#clip0_0_41)">
<g id="Vector">
</g>
<path id="Vector_2" d="M6.66797 10H10.418" stroke="white" stroke-width="1.2" stroke-linecap="round" stroke-linejoin="round"/>
<path id="Vector_3" d="M6.66797 6.6665H11.668" stroke="white" stroke-width="1.2" stroke-linecap="round" stroke-linejoin="round"/>
<path id="Vector_4" d="M6.66797 13.3335H8.33464" stroke="white" stroke-width="1.2" stroke-linecap="round" stroke-linejoin="round"/>
<path id="Vector_5" d="M2.5 5.83333V4.16667C2.5 3.72464 2.67559 3.30072 2.98816 2.98816C3.30072 2.67559 3.72464 2.5 4.16667 2.5H5.83333" stroke="white" stroke-width="1.2" stroke-linecap="round" stroke-linejoin="round"/>
<path id="Vector_6" d="M2.5 14.1667V15.8333C2.5 16.2754 2.67559 16.6993 2.98816 17.0118C3.30072 17.3244 3.72464 17.5 4.16667 17.5H5.83333" stroke="white" stroke-width="1.2" stroke-linecap="round" stroke-linejoin="round"/>
<path id="Vector_7" d="M14.168 2.5H15.8346C16.2767 2.5 16.7006 2.67559 17.0131 2.98816C17.3257 3.30072 17.5013 3.72464 17.5013 4.16667V5.83333" stroke="white" stroke-width="1.2" stroke-linecap="round" stroke-linejoin="round"/>
<path id="Vector_8" d="M11.668 17.5V14.1667C11.668 13.7246 11.8436 13.3007 12.1561 12.9882C12.4687 12.6756 12.8926 12.5 13.3346 12.5C13.7767 12.5 14.2006 12.6756 14.5131 12.9882C14.8257 13.3007 15.0013 13.7246 15.0013 14.1667V17.5" stroke="white" stroke-width="1.2" stroke-linecap="round" stroke-linejoin="round"/>
<path id="Vector_9" d="M11.668 15.8335H15.0013" stroke="white" stroke-width="1.2" stroke-linecap="round" stroke-linejoin="round"/>
<path id="Vector_10" d="M17.5 12.5V17.5" stroke="white" stroke-width="1.2" stroke-linecap="round" stroke-linejoin="round"/>
</g>
<defs>
<clipPath id="clip0_0_41">
<rect width="20" height="20" fill="white"/>
</clipPath>
</defs>
</svg>
