<svg preserveAspectRatio="none" overflow="visible" style="display: block;" width="30" height="30" viewBox="0 0 30 30" fill="none" xmlns="http://www.w3.org/2000/svg">
<g id="notion 1">
<path id="Vector" d="M23.75 10V11.25H22.5V22.5H18.75V21.25H17.5V18.75H16.25V16.25H15V15H13.75V22.5H15V23.75H10V22.5H11.25V12.5H10V11.25H16.25V13.75H17.5V16.25H18.75V17.5H20V11.25H18.75V10H23.75Z" fill="white"/>
<path id="Vector_2" d="M27.5 6.25V5H26.25V3.75H25V2.5H23.75V1.25H13.75V2.5H1.25V22.5H2.5V23.75H3.75V25H5V26.25H6.25V28.75H17.5V27.5H27.5V26.25H28.75V6.25H27.5ZM6.25 7.5V6.25H5V5H3.75V3.75H15V2.5H21.25V3.75H22.5V5H23.75V6.25H13.75V7.5H6.25ZM26.25 25H16.25V26.25H7.5V8.75H15V7.5H26.25V25Z" fill="white"/>
</g>
</svg>
